HIERARCHY
ROOT hip
{
  OFFSET 0 0 0
  CHANNELS 6 Xposition Yposition Zposition Zrotation Yrotation Xrotation
  JOINT abdomen
  {
    OFFSET 0 20.6881 -0.73152
    CHANNELS 3 Zrotation Xrotation Yrotation
    JOINT chest
    {
      OFFSET 0 11.7043 -0.48768
      CHANNELS 3 Zrotation Xrotation Yrotation
      JOINT neck
      {
        OFFSET 0 22.1894 -2.19456
        CHANNELS 3 Zrotation Xrotation Yrotation
        JOINT head
        {
          OFFSET -0.24384 7.07133 1.2192
          CHANNELS 3 Zrotation Xrotation Yrotation
          JOINT leftEye
          {
            OFFSET 4.14528 8.04674 8.04672
            CHANNELS 3 Zrotation Xrotation Yrotation
            End Site
            {
              OFFSET 1 0 0
            }
          }
          JOINT rightEye
          {
            OFFSET -3.6576 8.04674 8.04672
            CHANNELS 3 Zrotation Xrotation Yrotation
            End Site
            {
              OFFSET 1 0 0
            }
          }
        }
      }
      JOINT rCollar
      {
        OFFSET -2.68224 19.2634 -4.8768
        CHANNELS 3 Zrotation Xrotation Yrotation
        JOINT rShldr
        {
          OFFSET -8.77824 -1.95073 1.46304
          CHANNELS 3 Zrotation Xrotation Yrotation
          JOINT rForeArm
          {
            OFFSET -28.1742 -1.7115 0.48768
            CHANNELS 3 Zrotation Xrotation Yrotation
            JOINT rHand
            {
              OFFSET -22.5879 0.773209 7.07136
              CHANNELS 3 Zrotation Xrotation Yrotation
              JOINT rThumb1
              {
                OFFSET -1.2192 -0.487915 3.41376
                CHANNELS 3 Zrotation Xrotation Yrotation
                JOINT rThumb2
                {
                  OFFSET -3.37035 -0.52449 3.41376
                  CHANNELS 3 Zrotation Xrotation Yrotation
                  End Site
                  {
                    OFFSET -1.78271 -1.18214 1.43049
                  }
                }
              }
              JOINT rIndex1
              {
                OFFSET -7.75947 0.938293 5.60832
                CHANNELS 3 Zrotation Xrotation Yrotation
                JOINT rIndex2
                {
                  OFFSET -2.54057 -0.884171 1.56538
                  CHANNELS 3 Zrotation Xrotation Yrotation
                  End Site
                  {
                    OFFSET -1.62519 -0.234802 1.16502
                  }
                }
              }
              JOINT rMid1
              {
                OFFSET -8.24714 1.18213 3.41376
                CHANNELS 3 Zrotation Xrotation Yrotation
                JOINT rMid2
                {
                  OFFSET -3.10165 -0.590103 1.0647
                  CHANNELS 3 Zrotation Xrotation Yrotation
                  End Site
                  {
                    OFFSET -2.48547 -0.328903 0.83742
                  }
                }
              }
              JOINT rRing1
              {
                OFFSET -8.82822 0.546677 1.51678
                CHANNELS 3 Zrotation Xrotation Yrotation
                JOINT rRing2
                {
                  OFFSET -2.60934 -0.819778 -0.0198488
                  CHANNELS 3 Zrotation Xrotation Yrotation
                  End Site
                  {
                    OFFSET -2.33842 -0.294052 0.168128
                  }
                }
              }
              JOINT rPinky1
              {
                OFFSET -8.27202 -0.0477905 -0.4584
                CHANNELS 3 Zrotation Xrotation Yrotation
                JOINT rPinky2
                {
                  OFFSET -1.82734 -0.647385 -0.700984
                  CHANNELS 3 Zrotation Xrotation Yrotation
                  End Site
                  {
                    OFFSET -1.69225 -0.51767 -0.607171
                  }
                }
              }
            }
          }
        }
      }
      JOINT lCollar
      {
        OFFSET 2.68224 19.2634 -4.8768
        CHANNELS 3 Zrotation Xrotation Yrotation
        JOINT lShldr
        {
          OFFSET 8.77824 -1.95073 1.46304
          CHANNELS 3 Zrotation Xrotation Yrotation
          JOINT lForeArm
          {
            OFFSET 28.1742 -1.7115 0.48768
            CHANNELS 3 Zrotation Xrotation Yrotation
            JOINT lHand
            {
              OFFSET 22.5879 0.773209 7.07136
              CHANNELS 3 Zrotation Xrotation Yrotation
              JOINT lThumb1
              {
                OFFSET 1.2192 -0.487915 3.41376
                CHANNELS 3 Zrotation Xrotation Yrotation
                JOINT lThumb2
                {
                  OFFSET 3.37035 -0.52449 3.41376
                  CHANNELS 3 Zrotation Xrotation Yrotation
                  End Site
                  {
                    OFFSET 1.78271 -1.18214 1.43049
                  }
                }
              }
              JOINT lIndex1
              {
                OFFSET 7.75947 0.938293 5.60832
                CHANNELS 3 Zrotation Xrotation Yrotation
                JOINT lIndex2
                {
                  OFFSET 2.54057 -0.884171 1.56538
                  CHANNELS 3 Zrotation Xrotation Yrotation
                  End Site
                  {
                    OFFSET 1.62519 -0.234802 1.16502
                  }
                }
              }
              JOINT lMid1
              {
                OFFSET 8.24714 1.18213 3.41376
                CHANNELS 3 Zrotation Xrotation Yrotation
                JOINT lMid2
                {
                  OFFSET 3.10165 -0.590103 1.0647
                  CHANNELS 3 Zrotation Xrotation Yrotation
                  End Site
                  {
                    OFFSET 2.48547 -0.328903 0.83742
                  }
                }
              }
              JOINT lRing1
              {
                OFFSET 8.82822 0.546677 1.51678
                CHANNELS 3 Zrotation Xrotation Yrotation
                JOINT lRing2
                {
                  OFFSET 2.60934 -0.819778 -0.0198488
                  CHANNELS 3 Zrotation Xrotation Yrotation
                  End Site
                  {
                    OFFSET 2.33842 -0.294052 0.168128
                  }
                }
              }
              JOINT lPinky1
              {
                OFFSET 8.27202 -0.0477905 -0.4584
                CHANNELS 3 Zrotation Xrotation Yrotation
                JOINT lPinky2
                {
                  OFFSET 1.82734 -0.647385 -0.700984
                  CHANNELS 3 Zrotation Xrotation Yrotation
                  End Site
                  {
                    OFFSET 1.69225 -0.51767 -0.607171
                  }
                }
              }
            }
          }
        }
      }
    }
  }
  JOINT rButtock
  {
    OFFSET -8.77824 4.35084 1.2192
    CHANNELS 3 Zrotation Xrotation Yrotation
    JOINT rThigh
    {
      OFFSET 0 -1.70687 -2.19456
      CHANNELS 3 Zrotation Xrotation Yrotation
      JOINT rShin
      {
        OFFSET 0 -36.8199 0.73152
        CHANNELS 3 Zrotation Xrotation Yrotation
        JOINT rFoot
        {
          OFFSET 0.73152 -45.1104 -5.12064
          CHANNELS 3 Zrotation Xrotation Yrotation
          End Site
          {
            OFFSET -1.1221 -3.69964 12.103
          }
        }
      }
    }
  }
  JOINT lButtock
  {
    OFFSET 8.77824 4.35084 1.2192
    CHANNELS 3 Zrotation Xrotation Yrotation
    JOINT lThigh
    {
      OFFSET 0 -1.70687 -2.19456
      CHANNELS 3 Zrotation Xrotation Yrotation
      JOINT lShin
      {
        OFFSET 0 -36.8199 0.73152
        CHANNELS 3 Zrotation Xrotation Yrotation
        JOINT lFoot
        {
          OFFSET -0.73152 -45.1104 -5.12064
          CHANNELS 3 Zrotation Xrotation Yrotation
          End Site
          {
            OFFSET 1.1221 -3.69964 12.103
          }
        }
      }
    }
  }
}
MOTION
Frames:	5
Frame Time:	0.03333
220.7894 59.1909 -186.8675 -17.629315 -25.336563 10.885387 9.099772 7.528662 105.98888 -7.968208 -2.416841 -98.336433 -11.400129 27.41967 -86.011406 34.907892 12.602032 89.234625 26.504792 0.510262 2.166354 26.895 8.679662 35.217161 -153.036351 -0.216557 155.015409 -81.542919 39.375898 45.179163 -136.374797 18.227533 -157.487616 4.775554 -8.890969 0.802662 -173.840628 -11.778928 97.060644 166.047221 -54.246855 120.796104 -146.098096 -76.013108 153.358374 -159.431903 -61.096637 116.925932 -94.193816 56.467338 88.249338 -165.573406 -16.527903 143.421032 -137.410514 3.409559 -176.990382 -130.927349 -5.854568 -158.641547 29.021674 47.948805 -5.615072 -14.65486 40.108799 32.32771 144.027142 -65.800282 170.896183 67.35968 -30.723294 65.950216 174.878311 4.499134 145.960348 5.881237 34.731118 -3.525734 -3.107016 -6.548044 -3.77656 1.428184 -15.479237 20.647531 -154.242813 -82.644755 -101.221292 146.247375 -18.161059 -121.366101 -36.676985 -56.138221 -2.336477 145.188651 31.253946 -102.560497 101.494397 66.639008 -103.194831 -29.373327 -31.537985 -20.379317 139.419446 15.702366 143.549338 57.225527 -63.650701 73.302145 -54.773758 10.866212 -39.594864 49.277639 32.399262 15.395678 -9.364281 39.8315 56.742898 -26.046969 -75.203904 -95.456358 -66.937251 20.338791 -45.826958 132.08342 -14.574651 146.21896 85.669629 -13.232515 122.558477 78.164939 -11.394331 174.356866
221.7905 59.2067 -186.96779999999998 -17.528915 -25.329219 11.027557 8.963746 7.587697 101.702695 -7.957086 -2.922553 -94.099201 10.74661 24.809308 95.801124 -30.495067 10.025515 -90.258414 26.20062 0.586947 2.521806 25.678711 7.938455 33.864744 -133.592086 41.130433 137.379313 -37.261972 7.278876 65.135725 -172.212443 -33.116729 -131.705476 -6.822996 26.904604 -0.010668 1.748196 -3.518072 -7.393049 -106.298475 -6.80165 93.144309 -145.654 -44.283376 143.8612 -18.495548 68.992916 16.545032 102.694899 -77.620216 69.699998 -166.618691 -5.135657 142.304669 -137.39418 -1.246485 -175.59934 -122.416377 -19.894492 -156.759079 15.617992 25.969454 -4.680936 -142.326288 38.064168 -176.410635 139.106976 53.548976 -146.111655 -66.792819 -38.712169 -101.533943 -99.950376 -48.162314 -120.926533 92.179696 79.391388 -77.091905 173.952446 -6.965451 -85.551937 155.343289 -6.951802 -72.6679 91.000136 49.299209 -78.04475 12.547422 12.194354 4.41341 2.841683 32.613377 -13.340478 35.708296 77.730943 -4.81886 115.020966 64.547654 -117.391026 -15.891453 -9.593681 -19.569487 9.273646 -30.415118 14.172576 103.946078 -53.10106 83.529974 -32.376959 -2.678251 -20.757513 29.618048 17.629086 127.452378 51.257816 -21.206537 64.417825 100.4992 -12.089738 170.300434 -35.72181 -0.225205 -21.026412 99.917836 -39.446558 88.338487 66.086607 58.62646 -152.610816 150.91596 -17.686391 -99.621908
222.7622 59.22579999999999 -187.0493 -17.501554 -25.204568 11.1192 9.020576 8.7213 71.873475 -6.652187 -6.643307 -64.351914 10.990871 25.307213 100.696263 -30.165894 12.607838 -94.796642 25.432285 0.650674 2.882903 25.066069 7.541769 33.029092 -151.24513 5.112972 154.007571 -114.487333 49.916962 72.917446 -67.052012 -69.719843 -148.034392 149.395664 -50.246095 129.14044 -2.021649 0.898346 -6.783482 18.644049 -15.563535 6.74005 -145.715187 -45.623894 144.098038 -18.599416 68.534554 18.076594 177.012298 -55.767333 133.931308 1.860633 -3.740677 3.934252 -137.292394 -8.684456 -173.360003 -138.378862 24.27889 -165.894323 -0.690829 -3.691994 -12.363394 6.646559 -41.941271 5.269422 0.249408 15.690292 1.750436 -77.837936 -12.025677 -19.632858 124.348629 30.303282 -96.82384 -68.338807 -64.4527 -57.978617 170.359278 -3.574673 -85.3643 32.594392 -24.866968 -21.222736 171.441621 -68.824636 -130.532179 -69.792312 -65.745724 -5.369414 -79.892649 -77.937663 -38.249486 175.624582 -10.828214 -113.48117 110.110191 65.519481 -112.277369 -17.998002 -12.494063 -18.900098 -15.963757 86.99227 -29.937149 27.814698 -36.875997 46.816518 94.882806 71.01962 60.061881 -82.169802 65.062916 2.224049 41.110794 6.622155 -94.705324 116.918245 -39.360604 24.034525 78.495778 55.662997 58.651182 -117.384368 -24.622465 -74.622985 -70.859238 43.910515 6.52458 150.012559 -4.878429 -80.828146
223.6881 59.2386 -187.1181 -17.532998 -25.007021 11.153625 13.464298 8.989635 -62.103009 7.487231 -4.318824 70.031027 6.560864 16.611222 47.054121 -18.926517 -13.633861 -45.940207 24.463518 0.654334 3.017649 24.679343 7.510027 33.399995 -156.306836 -15.797647 158.580119 119.504302 -50.976325 158.075739 -111.744179 58.355135 42.34048 140.900592 -56.878923 121.585365 -18.998681 19.886026 -0.882848 -99.647783 -7.960484 79.52922 -147.151566 -58.881786 146.946301 -164.498176 -71.064563 117.097781 35.760559 -58.337268 11.628028 -9.600227 15.762346 2.98542 -138.863318 1.283941 -176.766536 153.371491 72.449982 -117.716565 -17.474611 -24.084942 -25.298169 15.585486 -23.515586 6.062805 -0.150414 11.110137 2.88518 111.418461 -36.072596 -160.587278 19.854661 -53.510653 86.265055 -143.564262 -50.096636 -129.381568 -19.153886 -20.815089 -5.322194 130.733103 12.681496 -109.561588 174.13982 -71.868765 -129.186126 42.329239 59.33677 -42.819644 150.791206 -16.98721 -143.088786 109.695234 35.968287 -126.474183 46.624935 -73.401164 44.688368 40.978574 -52.96948 64.052394 144.923497 42.338504 151.188468 133.578812 42.773935 152.509642 -147.337008 80.309833 -36.70377 -122.621483 83.62572 10.985933 52.365832 6.773095 64.478242 -86.56418 22.420866 -154.91392 -37.88688 1.285078 -22.987716 104.523732 -38.757119 -155.984041 81.845261 -54.222367 127.073626 43.932065 -14.168995 152.262174
224.5778 59.2349 -187.1533 -17.561279 -24.865147 11.100404 9.195075 6.675374 118.070072 -7.295617 -0.423937 -110.18777 -1.611868 14.368115 1.38945 5.814448 -20.877464 3.757533 23.663163 0.615673 2.938349 23.832465 7.564418 34.787928 7.15346 -21.552731 1.409166 66.9952 24.866453 -32.800289 175.488976 -6.528297 97.233115 166.454443 -21.732083 141.446755 -18.005758 18.980687 -1.409764 5.841338 -10.144291 20.621809 17.218102 -72.216017 -34.275362 -122.136425 4.220224 109.24906 13.933162 -23.579143 4.133858 -162.28822 22.411232 143.360298 -139.488766 -3.268528 -175.390303 -128.566484 -12.398337 -160.944251 -105.977597 -31.187257 -104.587664 5.493164 -16.996378 -22.424141 154.53743 -5.270837 -167.680346 52.642041 11.55789 2.024535 -17.344533 -21.136476 62.789009 -163.85928 -20.214059 -145.844107 -5.449172 -9.941085 -3.315394 5.352238 -8.699327 17.701617 -1.25703 -0.727331 9.364557 168.102032 -14.745877 -98.633533 12.813327 43.530495 -21.03187 172.908952 -40.888745 -174.466328 62.542895 64.386779 -62.695271 -28.82869 -20.135901 -15.695654 -22.173077 61.649439 -16.467919 -2.252891 -2.832384 22.667369 109.457594 75.989791 50.632885 -89.041146 67.053598 -179.844296 -41.088172 -8.1684 106.171487 85.232834 -64.536874 9.340267 -4.956171 -4.242603 4.4942 64.967643 -62.591944 59.712981 62.093039 70.859669 38.738869 -143.007638 -38.647446 108.069287
